<?xml version="1.0" encoding="UTF-8"?>
<svg xmlns="http://www.w3.org/2000/svg" viewBox="0 0 1280 800" preserveAspectRatio="xMidYMid meet" font-family="ui-sans-serif, system-ui, -apple-system, 'Segoe UI', Inter, sans-serif">
  <defs>
    <style>
      .bg-base { fill: #0a0a0c; }
      .bg-panel { fill: #111114; }
      .bg-subtle { fill: #16161a; }
      .bg-hover { fill: #1c1c22; }
      .ln { stroke: #22222a; stroke-width: 1; fill: none; }
      .ln-subtle { stroke: #1a1a20; stroke-width: 1; fill: none; }
      .ink { fill: #e9e9ee; }
      .ink-muted { fill: #a0a0aa; }
      .ink-faint { fill: #6a6a74; }
      .accent { fill: #a0acff; }
      .accent-bg { fill: #7c8cff; fill-opacity: 0.12; }
      .accent-bg-strong { fill: #7c8cff; fill-opacity: 0.15; }
      .accent-border { stroke: #7c8cff; stroke-opacity: 0.30; stroke-width: 1; fill: none; }
      .accent-border-strong { stroke: #7c8cff; stroke-opacity: 0.60; stroke-width: 1; fill: none; }
      .accent-ring { stroke: #7c8cff; stroke-opacity: 0.40; stroke-width: 1; fill: none; }
      .diff-add-bg { fill: #1f3a26; }
      .diff-add-text { fill: #9fe0a8; }
      .diff-del-bg { fill: #3a1f1f; }
      .diff-del-text { fill: #ff9aa2; }
      text { dominant-baseline: middle; }
      .mono { font-family: ui-monospace, 'SF Mono', Menlo, Consolas, monospace; }
    </style>
    <radialGradient id="glow1" cx="20%" cy="-5%" r="60%">
      <stop offset="0%" stop-color="#7c8cff" stop-opacity="0.08"/>
      <stop offset="100%" stop-color="#7c8cff" stop-opacity="0"/>
    </radialGradient>
  </defs>

  <rect class="bg-base" width="1280" height="800"/>
  <rect width="1280" height="800" fill="url(#glow1)"/>

  <!-- ============ top bar ============ -->
  <g transform="translate(0, 0)">
    <rect width="1280" height="56" class="bg-panel"/>
    <line x1="0" y1="56" x2="1280" y2="56" class="ln"/>

    <text x="32" y="28" font-size="13" class="ink-faint">←</text>
    <text x="48" y="28" font-size="12" class="ink-muted">all sessions</text>

    <line x1="156" y1="14" x2="156" y2="42" class="ln"/>

    <text x="176" y="22" font-size="9.5" letter-spacing="0.12em" class="ink-faint" font-weight="600">PAYMENTS-API</text>
    <text x="176" y="38" font-size="15" font-weight="600" class="ink">Add idempotent transfer endpoint</text>

    <!-- token chip in top bar -->
    <g transform="translate(1086, 18)">
      <rect x="0" y="0" width="70" height="22" rx="5" class="accent-bg"/>
      <rect x="0" y="0" width="70" height="22" rx="5" class="accent-border"/>
      <path d="M 9 11 L 13 7 L 12 11 L 15 11 L 11 15 L 12 11 Z" fill="#a0acff"/>
      <text x="24" y="12" font-size="10.5" font-weight="600" letter-spacing="0.04em" class="accent">24.3M</text>
    </g>

    <text x="1170" y="28" font-size="11" class="ink-faint">May 28</text>
  </g>

  <!-- ============ 3-column body ============ -->
  <!-- Left: transcript panel -->
  <g transform="translate(0, 56)">
    <rect width="380" height="624" class="bg-panel"/>
    <line x1="380" y1="0" x2="380" y2="624" class="ln"/>

    <!-- transcript header -->
    <g transform="translate(0, 0)">
      <text x="16" y="20" font-size="10.5" letter-spacing="0.1em" class="ink-faint" font-weight="600">TRANSCRIPT</text>
      <text x="98" y="20" font-size="11" class="ink-faint">·  487 of 487</text>
      <line x1="0" y1="36" x2="380" y2="36" class="ln"/>
    </g>

    <!-- search input -->
    <g transform="translate(12, 46)">
      <rect x="0" y="0" width="356" height="30" rx="6" class="bg-subtle"/>
      <rect x="0" y="0" width="356" height="30" rx="6" class="ln"/>
      <circle cx="14" cy="15" r="5" class="ln-subtle" stroke-width="1.5"/>
      <line x1="18" y1="19" x2="22" y2="23" class="ln-subtle" stroke-width="1.5"/>
      <text x="32" y="16" font-size="12" class="ink-faint">Search transcript…</text>
    </g>

    <!-- vibes filter row -->
    <g transform="translate(12, 88)">
      <rect x="-12" y="-8" width="392" height="40" class="bg-panel"/>
      <text x="0" y="8" font-size="9" letter-spacing="0.12em" class="ink-faint" font-weight="500">VIBES</text>
      <g transform="translate(34, -2)">
        <!-- frustration (active) -->
        <rect x="0" y="0" width="38" height="20" rx="10" class="accent-bg-strong"/>
        <rect x="0" y="0" width="38" height="20" rx="10" class="accent-border-strong"/>
        <text x="6" y="11" font-size="10">😤</text>
        <text x="24" y="11" font-size="10" font-weight="500" class="accent">14</text>

        <rect x="44" y="0" width="32" height="20" rx="10" class="bg-panel"/>
        <rect x="44" y="0" width="32" height="20" rx="10" class="ln"/>
        <text x="50" y="11" font-size="10">🤔</text>
        <text x="66" y="11" font-size="10" font-weight="500" class="ink-muted">5</text>

        <rect x="80" y="0" width="32" height="20" rx="10" class="bg-panel"/>
        <rect x="80" y="0" width="32" height="20" rx="10" class="ln"/>
        <text x="86" y="11" font-size="10">💡</text>
        <text x="102" y="11" font-size="10" font-weight="500" class="ink-muted">2</text>

        <rect x="116" y="0" width="32" height="20" rx="10" class="bg-panel"/>
        <rect x="116" y="0" width="32" height="20" rx="10" class="ln"/>
        <text x="122" y="11" font-size="10">😬</text>
        <text x="138" y="11" font-size="10" font-weight="500" class="ink-muted">5</text>

        <rect x="152" y="0" width="32" height="20" rx="10" class="bg-panel"/>
        <rect x="152" y="0" width="32" height="20" rx="10" class="ln"/>
        <text x="158" y="11" font-size="10">⚡</text>
        <text x="174" y="11" font-size="10" font-weight="500" class="ink-muted">2</text>

        <rect x="188" y="0" width="36" height="20" rx="10" class="bg-panel"/>
        <rect x="188" y="0" width="36" height="20" rx="10" class="ln"/>
        <text x="194" y="11" font-size="10">🙏</text>
        <text x="210" y="11" font-size="10" font-weight="500" class="ink-muted">3</text>

        <!-- next ↓ -->
        <rect x="234" y="0" width="48" height="20" rx="10" class="bg-panel"/>
        <rect x="234" y="0" width="48" height="20" rx="10" class="accent-border"/>
        <text x="241" y="11" font-size="10" class="accent">next ↓</text>

        <text x="290" y="11" font-size="10" class="ink-faint">clear</text>
      </g>
      <line x1="-12" y1="32" x2="380" y2="32" class="ln"/>
    </g>

    <!-- event list -->
    <g transform="translate(12, 132)">
      <!-- timeline rail -->
      <line x1="22" y1="0" x2="22" y2="468" class="ln-subtle"/>

      <!-- event 1: user prompt with frustration -->
      <g transform="translate(0, 0)">
        <circle cx="22" cy="14" r="10" class="bg-panel"/>
        <circle cx="22" cy="14" r="10" class="ln"/>
        <text x="22" y="14" font-size="10" text-anchor="middle" class="ink-muted">P</text>
        <text x="42" y="11" font-size="11.5" font-weight="500" class="ink">why doesn't this idempotency-key check fire</text>
        <text x="42" y="24" font-size="11.5" font-weight="500" class="ink">on retries? ugh i thought we fixed this</text>
        <text x="42" y="40" font-size="9.5" class="ink-faint">#03  ·  00:12:48  </text>
        <text x="114" y="40" font-size="13">😤</text>
      </g>

      <!-- event 2: tool call -->
      <g transform="translate(0, 56)">
        <circle cx="22" cy="14" r="10" class="bg-panel"/>
        <circle cx="22" cy="14" r="10" class="ln"/>
        <text x="22" y="14" font-size="10" text-anchor="middle" class="ink-muted">⚙</text>
        <text x="42" y="11" font-size="11.5" font-weight="500" class="ink">Read: src/handlers/transfer.ts</text>
        <text x="42" y="24" font-size="11.5" font-weight="500" class="ink-muted" font-style="italic">lines 1-200</text>
        <text x="42" y="40" font-size="9.5" class="ink-faint">#04  ·  00:12:51</text>
      </g>

      <!-- event 3: assistant -->
      <g transform="translate(0, 112)">
        <circle cx="22" cy="14" r="10" class="bg-panel"/>
        <circle cx="22" cy="14" r="10" class="ln"/>
        <text x="22" y="14" font-size="10" text-anchor="middle" class="ink-muted">A</text>
        <text x="42" y="11" font-size="11.5" font-weight="500" class="ink">The middleware is checking the cache key</text>
        <text x="42" y="24" font-size="11.5" font-weight="500" class="ink">before the request is parsed — so retries…</text>
        <text x="42" y="40" font-size="9.5" class="ink-faint">#05  ·  00:13:05</text>
      </g>

      <!-- event 4: user prompt with regret + redirect (SELECTED) -->
      <g transform="translate(-12, 168)">
        <rect x="0" y="-6" width="368" height="72" rx="6" class="bg-hover"/>
        <rect x="0" y="-6" width="368" height="72" rx="6" class="accent-ring"/>
        <circle cx="34" cy="14" r="10" class="bg-panel"/>
        <circle cx="34" cy="14" r="10" class="accent-border-strong"/>
        <text x="34" y="14" font-size="10" text-anchor="middle" class="ink">P</text>
        <text x="54" y="11" font-size="11.5" font-weight="500" class="ink">actually no, scratch that. let's pivot and</text>
        <text x="54" y="24" font-size="11.5" font-weight="500" class="ink">move the check into the handler instead</text>
        <text x="54" y="40" font-size="9.5" class="ink-faint">#06  ·  00:14:22  </text>
        <text x="124" y="40" font-size="13">😬</text>
        <text x="138" y="40" font-size="13">🔀</text>
      </g>

      <!-- event 5: assistant -->
      <g transform="translate(0, 244)">
        <circle cx="22" cy="14" r="10" class="bg-panel"/>
        <circle cx="22" cy="14" r="10" class="ln"/>
        <text x="22" y="14" font-size="10" text-anchor="middle" class="ink-muted">A</text>
        <text x="42" y="11" font-size="11.5" font-weight="500" class="ink">Moving the check inside `handleTransfer()`.</text>
        <text x="42" y="24" font-size="11.5" font-weight="500" class="ink">Adding test cases for replay and partial…</text>
        <text x="42" y="40" font-size="9.5" class="ink-faint">#07  ·  00:14:30</text>
      </g>

      <!-- event 6: tool call -->
      <g transform="translate(0, 300)">
        <circle cx="22" cy="14" r="10" class="bg-panel"/>
        <circle cx="22" cy="14" r="10" class="ln"/>
        <text x="22" y="14" font-size="10" text-anchor="middle" class="ink-muted">✎</text>
        <text x="42" y="11" font-size="11.5" font-weight="500" class="ink">Edit: src/handlers/transfer.ts</text>
        <text x="42" y="24" font-size="11.5" font-weight="500" class="ink-muted" font-style="italic">+ 18 lines</text>
        <text x="42" y="40" font-size="9.5" class="ink-faint">#08  ·  00:14:42</text>
      </g>

      <!-- event 7: user with breakthrough + decision + gratitude -->
      <g transform="translate(0, 356)">
        <circle cx="22" cy="14" r="10" class="bg-panel"/>
        <circle cx="22" cy="14" r="10" class="ln"/>
        <text x="22" y="14" font-size="10" text-anchor="middle" class="ink-muted">P</text>
        <text x="42" y="11" font-size="11.5" font-weight="500" class="ink">that works! ok let's ship it. thanks for the</text>
        <text x="42" y="24" font-size="11.5" font-weight="500" class="ink">catch on the request-parse ordering</text>
        <text x="42" y="40" font-size="9.5" class="ink-faint">#09  ·  00:18:14  </text>
        <text x="124" y="40" font-size="13">💡</text>
        <text x="138" y="40" font-size="13">⚡</text>
        <text x="152" y="40" font-size="13">🙏</text>
      </g>

      <!-- event 8: tool call -->
      <g transform="translate(0, 412)">
        <circle cx="22" cy="14" r="10" class="bg-panel"/>
        <circle cx="22" cy="14" r="10" class="ln"/>
        <text x="22" y="14" font-size="10" text-anchor="middle" class="ink-muted">⚑</text>
        <text x="42" y="11" font-size="11.5" font-weight="500" class="ink">Checkpoint: idempotency working</text>
        <text x="42" y="24" font-size="11.5" font-weight="500" class="ink-muted" font-style="italic">tests pass, retry behavior verified</text>
        <text x="42" y="40" font-size="9.5" class="ink-faint">#10  ·  00:18:31</text>
      </g>
    </g>
  </g>

  <!-- Center: stage panel -->
  <g transform="translate(380, 56)">
    <rect width="580" height="624" class="bg-base"/>
    <line x1="580" y1="0" x2="580" y2="624" class="ln"/>

    <!-- stage header -->
    <g transform="translate(0, 0)">
      <text x="20" y="20" font-size="10.5" letter-spacing="0.1em" class="ink-faint" font-weight="600">STAGE · EVENT #06</text>
      <text x="170" y="20" font-size="11" class="ink-faint">USER PROMPT</text>

      <g transform="translate(460, 8)">
        <text x="20" y="14" font-size="13">😬</text>
        <text x="40" y="14" font-size="13">🔀</text>
        <text x="64" y="14" font-size="11" class="ink-faint">regret · redirect</text>
      </g>
      <line x1="0" y1="36" x2="580" y2="36" class="ln"/>
    </g>

    <!-- prompt content card -->
    <g transform="translate(28, 60)">
      <rect x="0" y="0" width="524" height="160" rx="10" class="bg-panel"/>
      <rect x="0" y="0" width="524" height="160" rx="10" class="ln"/>

      <text x="20" y="32" font-size="14" class="ink" font-style="italic">"actually no, scratch that. let's pivot</text>
      <text x="20" y="56" font-size="14" class="ink" font-style="italic">and move the check into the handler</text>
      <text x="20" y="80" font-size="14" class="ink" font-style="italic">instead. the middleware ordering is</text>
      <text x="20" y="104" font-size="14" class="ink" font-style="italic">fragile and i'd rather have it close to</text>
      <text x="20" y="128" font-size="14" class="ink" font-style="italic">the business logic anyway."</text>
    </g>

    <!-- markers detected callout -->
    <g transform="translate(28, 244)">
      <text x="0" y="0" font-size="10.5" letter-spacing="0.1em" class="ink-faint" font-weight="600">DETECTED MARKERS</text>
      <g transform="translate(0, 16)">
        <rect x="0" y="0" width="116" height="26" rx="13" class="accent-bg-strong"/>
        <rect x="0" y="0" width="116" height="26" rx="13" class="accent-border-strong"/>
        <text x="14" y="14" font-size="14">😬</text>
        <text x="34" y="14" font-size="11.5" class="accent">regret</text>
        <text x="78" y="14" font-size="10.5" class="ink-faint">"scratch that"</text>

        <rect x="124" y="0" width="124" height="26" rx="13" class="accent-bg-strong"/>
        <rect x="124" y="0" width="124" height="26" rx="13" class="accent-border-strong"/>
        <text x="138" y="14" font-size="14">🔀</text>
        <text x="158" y="14" font-size="11.5" class="accent">redirect</text>
        <text x="210" y="14" font-size="10.5" class="ink-faint">"let's pivot"</text>
      </g>
    </g>

    <!-- session arc visualization -->
    <g transform="translate(28, 320)">
      <text x="0" y="0" font-size="10.5" letter-spacing="0.1em" class="ink-faint" font-weight="600">SESSION ARC · 25 MARKED MOMENTS</text>

      <g transform="translate(0, 18)">
        <!-- bar chart of categories -->
        <text x="0" y="14" font-size="11">😤</text>
        <rect x="22" y="6" width="140" height="14" rx="3" class="accent-bg"/>
        <text x="170" y="14" font-size="10.5" class="ink">14 frustration</text>

        <text x="0" y="36" font-size="11">😬</text>
        <rect x="22" y="28" width="50" height="14" rx="3" class="accent-bg"/>
        <text x="80" y="36" font-size="10.5" class="ink">5 regret</text>

        <text x="0" y="58" font-size="11">🤔</text>
        <rect x="22" y="50" width="50" height="14" rx="3" class="accent-bg"/>
        <text x="80" y="58" font-size="10.5" class="ink">5 confusion</text>

        <text x="0" y="80" font-size="11">🙏</text>
        <rect x="22" y="72" width="30" height="14" rx="3" class="accent-bg"/>
        <text x="60" y="80" font-size="10.5" class="ink">3 gratitude</text>

        <text x="0" y="102" font-size="11">💡</text>
        <rect x="22" y="94" width="20" height="14" rx="3" class="accent-bg"/>
        <text x="50" y="102" font-size="10.5" class="ink">2 breakthrough</text>

        <text x="0" y="124" font-size="11">⚡</text>
        <rect x="22" y="116" width="20" height="14" rx="3" class="accent-bg"/>
        <text x="50" y="124" font-size="10.5" class="ink">2 decision</text>
      </g>
    </g>

    <!-- timeline scrubber at bottom of stage -->
    <g transform="translate(0, 540)">
      <line x1="0" y1="0" x2="580" y2="0" class="ln"/>

      <text x="20" y="22" font-size="10.5" letter-spacing="0.1em" class="ink-faint" font-weight="600">TIMELINE</text>

      <!-- play/pause -->
      <g transform="translate(20, 36)">
        <rect x="0" y="0" width="28" height="28" rx="6" class="bg-panel"/>
        <rect x="0" y="0" width="28" height="28" rx="6" class="ln"/>
        <path d="M 10 8 L 18 14 L 10 20 Z" class="ink"/>
      </g>
      <g transform="translate(56, 36)">
        <rect x="0" y="0" width="28" height="28" rx="6" class="bg-panel"/>
        <rect x="0" y="0" width="28" height="28" rx="6" class="ln"/>
        <text x="14" y="15" font-size="11" text-anchor="middle" class="ink">1×</text>
      </g>

      <!-- scrubber track -->
      <g transform="translate(100, 50)">
        <rect x="0" y="0" width="460" height="2" class="ln" fill="#22222a"/>
        <!-- event ticks across the track -->
        <line x1="20" y1="-4" x2="20" y2="6" class="ln" stroke="#33333d"/>
        <line x1="55" y1="-4" x2="55" y2="6" class="ln" stroke="#33333d"/>
        <line x1="90" y1="-4" x2="90" y2="6" class="ln" stroke="#33333d"/>
        <!-- vibe markers on the track -->
        <circle cx="40" cy="1" r="3" fill="#7c8cff"/>
        <text x="40" y="-8" font-size="8" text-anchor="middle">😤</text>
        <circle cx="140" cy="1" r="3" fill="#7c8cff"/>
        <text x="140" y="-8" font-size="8" text-anchor="middle">😬</text>
        <circle cx="155" cy="1" r="3" fill="#7c8cff"/>
        <text x="155" y="-8" font-size="8" text-anchor="middle">🔀</text>
        <circle cx="220" cy="1" r="3" fill="#7c8cff"/>
        <text x="220" y="-8" font-size="8" text-anchor="middle">😤</text>
        <circle cx="280" cy="1" r="3" fill="#7c8cff"/>
        <text x="280" y="-8" font-size="8" text-anchor="middle">😤</text>
        <circle cx="340" cy="1" r="3" fill="#7c8cff"/>
        <text x="340" y="-8" font-size="8" text-anchor="middle">💡</text>
        <circle cx="355" cy="1" r="3" fill="#7c8cff"/>
        <text x="355" y="-8" font-size="8" text-anchor="middle">⚡</text>
        <circle cx="370" cy="1" r="3" fill="#7c8cff"/>
        <text x="370" y="-8" font-size="8" text-anchor="middle">🙏</text>

        <!-- playhead -->
        <line x1="155" y1="-8" x2="155" y2="10" stroke="#a0acff" stroke-width="2"/>
      </g>

      <text x="100" y="80" font-size="10" class="ink-faint">00:00</text>
      <text x="540" y="80" font-size="10" class="ink-faint">2h 14m</text>
    </g>
  </g>

  <!-- Right: file tree -->
  <g transform="translate(960, 56)">
    <rect width="320" height="624" class="bg-panel"/>

    <text x="16" y="20" font-size="10.5" letter-spacing="0.1em" class="ink-faint" font-weight="600">FILES TOUCHED · 14</text>
    <line x1="0" y1="36" x2="320" y2="36" class="ln"/>

    <g transform="translate(16, 56)" font-size="11.5" class="mono">
      <text class="ink-faint">src/</text>
      <text y="20" x="14" class="ink-faint">handlers/</text>
      <g transform="translate(28, 40)">
        <rect x="-8" y="-10" width="280" height="20" rx="4" class="accent-bg"/>
        <text class="ink">transfer.ts</text>
        <text x="180" class="diff-add-text">+18  </text>
        <text x="216" class="diff-del-text">-4</text>
      </g>
      <text y="64" x="28" class="ink-muted">balance.ts</text>
      <text y="64" x="180" class="diff-add-text">+6  </text>
      <text y="64" x="216" class="diff-del-text">-2</text>

      <text y="88" x="14" class="ink-faint">middleware/</text>
      <text y="108" x="28" class="ink-muted">idempotency.ts</text>
      <text y="108" x="180" class="diff-add-text">+4  </text>
      <text y="108" x="216" class="diff-del-text">-12</text>

      <text y="132" x="14" class="ink-faint">lib/</text>
      <text y="152" x="28" class="ink-muted">cache.ts</text>
      <text y="152" x="180" class="diff-add-text">+2  </text>
      <text y="152" x="216" class="diff-del-text">-0</text>

      <text y="180" class="ink-faint">test/</text>
      <text y="200" x="14" class="ink-faint">handlers/</text>
      <text y="220" x="28" class="ink-muted">transfer.test.ts</text>
      <text y="220" x="180" class="diff-add-text">+42  </text>
      <text y="220" x="216" class="diff-del-text">-0</text>
      <text y="244" x="28" class="ink-muted">retry.test.ts</text>
      <text y="244" x="180" class="diff-add-text">+18  </text>
      <text y="244" x="216" class="diff-del-text">-0</text>
    </g>

    <!-- diff snippet -->
    <g transform="translate(0, 380)">
      <line x1="0" y1="0" x2="320" y2="0" class="ln"/>
      <text x="16" y="20" font-size="10.5" letter-spacing="0.1em" class="ink-faint" font-weight="600">DIFF · transfer.ts</text>

      <g transform="translate(16, 40)" font-size="10.5" class="mono">
        <rect x="0" y="-8" width="288" height="16" class="diff-del-bg"/>
        <text x="6" class="ink-faint">-</text>
        <text x="20" class="diff-del-text">if (cache.has(req.id))</text>

        <rect x="0" y="12" width="288" height="16" class="diff-add-bg"/>
        <text x="6" y="20" class="ink-faint">+</text>
        <text x="20" y="20" class="diff-add-text">if (cache.has(idemKey))</text>

        <rect x="0" y="32" width="288" height="16" class="diff-add-bg"/>
        <text x="6" y="40" class="ink-faint">+</text>
        <text x="20" y="40" class="diff-add-text">  return cache.get(idemKey)</text>

        <text x="6" y="60" class="ink-faint"> </text>
        <text x="20" y="60" class="ink-muted">cache.set(idemKey, body)</text>

        <text x="6" y="80" class="ink-faint"> </text>
        <text x="20" y="80" class="ink-muted">await handleTransfer(body)</text>
      </g>
    </g>
  </g>

  <!-- ============ footer note ============ -->
  <g transform="translate(0, 680)">
    <rect width="1280" height="120" class="bg-base"/>
    <line x1="0" y1="0" x2="1280" y2="0" class="ln"/>

    <text x="32" y="28" font-size="11" class="ink-faint">Replay session at /session/&lt;id&gt; · Space to play · ←/→ to step · J/K for next/prev event · click a vibe to filter the transcript and jump between matches</text>

    <g transform="translate(32, 56)">
      <text x="0" y="14" font-size="11" class="ink-muted">Markers detected from user-prompt text using regex sets in </text>
      <text x="376" y="14" font-size="11" class="mono accent">lib/markers.ts</text>
      <text x="476" y="14" font-size="11" class="ink-muted">— add categories by editing one file.</text>
    </g>
  </g>
</svg>
